<svg xmlns="http://www.w3.org/2000/svg" xmlns:xlink="http://www.w3.org/1999/xlink" viewBox="0 0 210.13 49.53"><defs><style>.cls-1{fill:none;}.cls-2{isolation:isolate;}.cls-3{clip-path:url(#clip-path);}.cls-4{fill:#0c8ed3;fill-rule:evenodd;}.cls-5{fill:#111;}</style><clipPath id="clip-path"><rect class="cls-1" width="210.13" height="49.53"/></clipPath></defs><g id="Layer_2" data-name="Layer 2"><g id="Layer_1-2" data-name="Layer 1"><g class="cls-2"><g class="cls-3"><path class="cls-4" d="M41,24.52c0,3.7.91,6.69,2,6.69s2-3,2-6.69-.91-6.69-2-6.69S41,20.83,41,24.52Z"/><path class="cls-4" d="M15.73,2.44C6.44,6.33,0,14.82,0,24.67S6.44,43,15.73,46.9C10.41,42.25,6.87,34,6.87,24.67S10.41,7.09,15.73,2.44Z"/><path class="cls-4" d="M27.22,8.13a51.73,51.73,0,0,0-2.41,16.72,52.2,52.2,0,0,0,2.36,16.61A3,3,0,0,1,24.87,43c-3.21,0-5.8-8.15-5.8-18.21s2.59-18.2,5.79-18.2A3.14,3.14,0,0,1,27.22,8.13ZM38,24.85c0,6.91-1.7,12.52-3.8,12.52s-3.8-5.61-3.8-12.52,1.7-12.51,3.8-12.52S38,17.94,38,24.85ZM22,0c-4.36,0-7.89,11.09-7.89,24.76S17.66,49.53,22,49.53c2.15,0,4.1-2.71,5.52-7.11,1.21,3,2.72,4.73,4.37,4.73,3.92,0,7.1-10,7.09-22.3S35.83,2.55,31.91,2.56c-1.63,0-3.14,1.74-4.34,4.65C26.15,2.76,24.18,0,22,0Z"/><path class="cls-5" d="M208.14,10.6v1.17h2V10.6Zm-.94.47V10.6H196.6v1.17h6.11V39.36H204V11.77h3.26a2.8,2.8,0,0,1,0-.7Zm-24.32,27.2a6.82,6.82,0,0,1-4.7-2.3,8.54,8.54,0,0,1-1.88-5.91V10.64h-1.09V30.06c0,2.92.7,5.16,2.08,6.73a7.75,7.75,0,0,0,5.59,2.57V38.27ZM191,10.64V30.06A8.17,8.17,0,0,1,189,36a7.1,7.1,0,0,1-4.8,2.26v1.13a7.76,7.76,0,0,0,5.58-2.59,9.84,9.84,0,0,0,2.09-6.71V10.64ZM156,39.36a13.9,13.9,0,0,0,10.24-4.27,14.71,14.71,0,0,0,3.16-4.49,13.38,13.38,0,0,0,1.07-5.47,14,14,0,0,0-4.23-10.3,14.85,14.85,0,0,0-17.66-2.26,14.25,14.25,0,0,0-5.25,5.37l1,.58a12.74,12.74,0,0,1,4.81-4.93,13.48,13.48,0,0,1,16.21,2.12,12.86,12.86,0,0,1,3.88,9.42,12.35,12.35,0,0,1-1,5,14.26,14.26,0,0,1-2.86,4.14A12.81,12.81,0,0,1,156,38.2a13.2,13.2,0,0,1-6.3-1.5l-.54,1.06a14.55,14.55,0,0,0,6.84,1.6ZM137.73,10.6V39.36h.94V10.6ZM122.85,39.33a13.73,13.73,0,0,0,5.43-1.43A13.27,13.27,0,0,0,133,33.78l-.83-.73a12.07,12.07,0,0,1-9.37,5.11Zm-2.2,0,.07-1.17a11.14,11.14,0,0,1-8.47-4.45,14.33,14.33,0,0,1-3-9.16,12.15,12.15,0,0,1,.9-4.88,14.45,14.45,0,0,1,2.72-4,11.91,11.91,0,0,1,9-3.84,12.31,12.31,0,0,1,5.94,1.43,11.64,11.64,0,0,1,4.3,4l.87-.7a12.8,12.8,0,0,0-4.7-4.34,12.44,12.44,0,0,0-6.23-1.46,14.91,14.91,0,0,0-5.49,1,12.21,12.21,0,0,0-4.53,3.09,16.16,16.16,0,0,0-2.95,4.38,13.2,13.2,0,0,0-1,5.33,15.68,15.68,0,0,0,3.29,9.93,12.44,12.44,0,0,0,9.23,4.85Zm-31.74.07a13.86,13.86,0,0,0,10.24-4.27,14.58,14.58,0,0,0,3.17-4.49,13.38,13.38,0,0,0,1.07-5.47,13.92,13.92,0,0,0-4.24-10.3A14.43,14.43,0,0,0,88.7,10.64a14.6,14.6,0,0,0-7.2,1.93,14.25,14.25,0,0,0-5.25,5.37l1,.58a12.74,12.74,0,0,1,4.81-4.93,13.48,13.48,0,0,1,16.21,2.12,12.82,12.82,0,0,1,3.87,9.42,12.35,12.35,0,0,1-1,5,14.26,14.26,0,0,1-2.86,4.14,12.82,12.82,0,0,1-9.45,3.91,13.19,13.19,0,0,1-6.29-1.5l-.54,1.06a14.54,14.54,0,0,0,6.83,1.6Zm-18.12-3.1H69.3a4.61,4.61,0,0,1-4,1.9,6,6,0,0,1-1.7-.22v1.28a8.86,8.86,0,0,0,1.7.14,6.7,6.7,0,0,0,3.37-.8,5.36,5.36,0,0,0,2.17-2.3ZM63.77,23,67,26a12,12,0,0,1,2.39,3.05,7,7,0,0,1,.86,3.27v.47A5.43,5.43,0,0,1,70,34.87h1.34a6.28,6.28,0,0,0,.26-2v-.51a7.64,7.64,0,0,0-1-3.76,15.16,15.16,0,0,0-2.77-3.51L64.67,22.1a24.5,24.5,0,0,1-2.44-2.67,4.9,4.9,0,0,1-1-3.1v-.22A4.49,4.49,0,0,1,62.34,13a3.8,3.8,0,0,1,3-1.19,5.19,5.19,0,0,1,2.25.42,7.48,7.48,0,0,1,1.77,1.26l.83-1a7.63,7.63,0,0,0-2.08-1.42,6.8,6.8,0,0,0-2.77-.47,5.26,5.26,0,0,0-3.74,1.44,5.18,5.18,0,0,0-1.54,4v.3a6.07,6.07,0,0,0,1,3.56,20.08,20.08,0,0,0,2.7,3Z"/></g></g></g></g></svg>